<svg version="1.2" xmlns="http://www.w3.org/2000/svg" viewBox="73 41 145 80" width="145" height="80">
	<title>2564681</title>
	<defs>
		<linearGradient id="g1" x2="1" gradientUnits="userSpaceOnUse" gradientTransform="matrix(76.522,0,0,46.314,106.659,41.651)">
			<stop offset="0" stop-color="#ffd295"/>
			<stop offset="1" stop-color="#ff79ac"/>
		</linearGradient>
	</defs>
	<style>
		tspan { white-space:pre } 
		.s0 { fill: url(#g1) } 
		.t1 { font-size: 27px;fill: #1a3077;font-weight: 400;font-family: "TechnaSans-Regular", "Techna Sans" } 
	</style>
	<g id="OBJECTS">
		<g id="&lt;Group&gt;">
			<path id="&lt;Compound Path&gt;" class="s0" d="m149.8 48.7c0.7 2.2 2.8 3.9 5.3 3.9 3 0 5.4-2.5 5.4-5.5 0-3-2.4-5.4-5.4-5.4-2.5 0-4.6 1.6-5.3 3.8h-7.4c-0.6 0-1.2 0.3-1.4 0.9l-18.1 34.6h-13v-32.3h24.8c0.9 0 1.6-0.7 1.6-1.6 0-0.9-0.7-1.6-1.6-1.6h-26.4c-0.9 0-1.6 0.7-1.6 1.6v35.5c0 0.9 0.7 1.6 1.6 1.6h15.6c0.6 0 1.1-0.3 1.4-0.8l18.1-34.7zm31.7-3.3h-15.6c-0.6 0-1.2 0.3-1.5 0.8l-18 34.7h-6.5c-0.7-2.2-2.8-3.8-5.2-3.8-3 0-5.5 2.4-5.5 5.4 0 3 2.5 5.5 5.5 5.5 2.4 0 4.5-1.7 5.2-3.9h7.5c0.6 0 1.1-0.3 1.4-0.8l18-34.7h13.1v32.3h-24.8c-0.9 0-1.6 0.7-1.6 1.6 0 0.9 0.7 1.6 1.6 1.6h26.4c0.9 0 1.6-0.7 1.6-1.6v-35.5c0-0.9-0.7-1.6-1.6-1.6zm-26.5-0.6c1.2 0 2.2 1.1 2.2 2.3 0 1.2-1 2.3-2.2 2.3-1.3 0-2.3-1.1-2.3-2.3 0-1.2 1-2.3 2.3-2.3zm-6.5 9.8l-9.5 18.4c-0.5 0.7-0.1 1.7 0.6 2.1q0.4 0.2 0.8 0.2c0.6 0 1.1-0.3 1.4-0.9l9.5-18.3c0.4-0.8 0.1-1.8-0.6-2.2-0.8-0.4-1.8-0.1-2.2 0.7zm-13.8 30.2c-1.3 0-2.3-1-2.3-2.3 0-1.2 1-2.2 2.3-2.2 1.2 0 2.2 1 2.2 2.2 0 1.3-1 2.3-2.2 2.3z"/>
			<g id="&lt;Group&gt;">
				<text id="CYBERTECH" style="transform: matrix(.774,-0.011,.011,.774,90.19,104.073)" >
					<tspan x="0" y="0" class="t1">CYBERTECH
</tspan>
				</text>
			</g>
		</g>
	</g>
</svg>